<svg xmlns="http://www.w3.org/2000/svg" width="29.558" height="33.76" viewBox="0 0 29.558 33.76">
  <path id="Path_1" data-name="Path 1" d="M19.872-28.027V-5.706h3.841a4.345,4.345,0,0,1,2.936.793,2.665,2.665,0,0,1,.877,2.073,2.633,2.633,0,0,1-.877,2.046A4.345,4.345,0,0,1,23.713,0H10.354A4.345,4.345,0,0,1,7.417-.793a2.665,2.665,0,0,1-.877-2.073,2.633,2.633,0,0,1,.877-2.046,4.345,4.345,0,0,1,2.936-.793h3.813V-28.027H7.988v5.4a4.345,4.345,0,0,1-.793,2.936,2.665,2.665,0,0,1-2.073.877,2.633,2.633,0,0,1-2.046-.877,4.345,4.345,0,0,1-.793-2.936V-33.76l29.558.028v11.1a4.345,4.345,0,0,1-.793,2.936,2.665,2.665,0,0,1-2.073.877,2.633,2.633,0,0,1-2.046-.877,4.345,4.345,0,0,1-.793-2.936v-5.4Z" transform="translate(-2.282 33.76)" fill="#444"/>
</svg>
